solid bin
  facet normal 0 0 1
    outer loop
      vertex 0 0 0
      vertex 40 0 0
      vertex 0 40 0
    endloop
  endfacet
  facet normal 0 0 1
    outer loop
      vertex 40 0 0
      vertex 40 40 0
      vertex 0 40 0
    endloop
  endfacet
  facet normal 0 0 -1
    outer loop
      vertex 0 0 -20
      vertex 0 40 -20
      vertex 40 0 -20
    endloop
  endfacet
  facet normal 0 0 -1
    outer loop
      vertex 40 0 -20
      vertex 0 40 -20
      vertex 40 40 -20
    endloop
  endfacet
endsolid bin
